<?xml version="1.0" encoding="UTF-8"?>
<!DOCTYPE svg PUBLIC "-//W3C//DTD SVG 1.1//EN" "http://www.w3.org/Graphics/SVG/1.1/DTD/svg11.dtd">
<svg xmlns="http://www.w3.org/2000/svg" version="1.1" width="397px" height="128px" style="shape-rendering:geometricPrecision; text-rendering:geometricPrecision; image-rendering:optimizeQuality; fill-rule:evenodd; clip-rule:evenodd" xmlns:xlink="http://www.w3.org/1999/xlink">
<g><path style="opacity:1" fill="#f6f6f6" d="M 206.5,-0.5 C 223.833,-0.5 241.167,-0.5 258.5,-0.5C 258.5,2.83333 258.5,6.16667 258.5,9.5C 253.985,9.2716 249.652,9.93827 245.5,11.5C 241.167,11.5 236.833,11.5 232.5,11.5C 232.5,12.5 232.5,13.5 232.5,14.5C 233.5,14.5 234.5,14.5 235.5,14.5C 235.5,22.5 235.5,30.5 235.5,38.5C 234.5,38.5 233.5,38.5 232.5,38.5C 232.5,39.5 232.5,40.5 232.5,41.5C 234.167,41.5 235.833,41.5 237.5,41.5C 237.5,44.5 237.5,47.5 237.5,50.5C 236.209,50.2627 235.209,50.596 234.5,51.5C 232.167,51.5 229.833,51.5 227.5,51.5C 227.5,48.1667 227.5,44.8333 227.5,41.5C 228.404,40.791 228.737,39.791 228.5,38.5C 227.022,38.762 225.689,38.4287 224.5,37.5C 222.268,34.37 220.602,31.0367 219.5,27.5C 220.822,27.67 221.989,27.3366 223,26.5C 224.405,22.9279 224.738,19.2613 224,15.5C 221.958,13.396 219.458,12.2293 216.5,12C 212.514,11.5012 208.514,11.3345 204.5,11.5C 204.5,12.5 204.5,13.5 204.5,14.5C 205.5,14.5 206.5,14.5 207.5,14.5C 207.5,22.5 207.5,30.5 207.5,38.5C 206.5,38.5 205.5,38.5 204.5,38.5C 203.596,39.209 203.263,40.209 203.5,41.5C 202.5,41.5 201.5,41.5 200.5,41.5C 200.5,40.1667 200.5,38.8333 200.5,37.5C 199.041,37.5674 197.708,37.2341 196.5,36.5C 196.371,34.7839 196.038,33.1172 195.5,31.5C 198.962,30.5184 202.629,30.185 206.5,30.5C 206.5,27.1667 206.5,23.8333 206.5,20.5C 202.833,20.5 199.167,20.5 195.5,20.5C 195.5,16.8333 195.5,13.1667 195.5,9.5C 199.167,9.5 202.833,9.5 206.5,9.5C 206.5,6.16667 206.5,2.83333 206.5,-0.5 Z"/></g>
<g><path style="opacity:1" fill="#f1f1f1" d="M 258.5,-0.5 C 269.167,-0.5 279.833,-0.5 290.5,-0.5C 290.5,2.83333 290.5,6.16667 290.5,9.5C 286.833,9.5 283.167,9.5 279.5,9.5C 279.5,13.1667 279.5,16.8333 279.5,20.5C 277.167,20.5 274.833,20.5 272.5,20.5C 272.5,18.5 272.5,16.5 272.5,14.5C 273.5,14.5 274.5,14.5 275.5,14.5C 275.5,13.5 275.5,12.5 275.5,11.5C 272.167,11.5 268.833,11.5 265.5,11.5C 265.5,12.5 265.5,13.5 265.5,14.5C 266.5,14.5 267.5,14.5 268.5,14.5C 268.5,22.5 268.5,30.5 268.5,38.5C 267.5,38.5 266.5,38.5 265.5,38.5C 265.5,39.5 265.5,40.5 265.5,41.5C 266.833,41.5 268.167,41.5 269.5,41.5C 269.5,44.5 269.5,47.5 269.5,50.5C 268.833,50.5 268.5,50.8333 268.5,51.5C 268.821,53.0481 269.821,53.7148 271.5,53.5C 271.5,56.5 271.5,59.5 271.5,62.5C 269.598,65.3373 268.931,68.6707 269.5,72.5C 265.731,72.244 262.064,72.5773 258.5,73.5C 259.423,66.891 259.756,60.2244 259.5,53.5C 260.5,53.5 261.5,53.5 262.5,53.5C 262.5,52.5 262.5,51.5 262.5,50.5C 259.167,50.5 255.833,50.5 252.5,50.5C 252.5,51.5 252.5,52.5 252.5,53.5C 253.5,53.5 254.5,53.5 255.5,53.5C 255.666,60.5079 255.5,67.5079 255,74.5C 254.073,77.7186 251.906,79.0519 248.5,78.5C 245.094,79.0519 242.927,77.7186 242,74.5C 241.5,67.5079 241.334,60.5079 241.5,53.5C 242.5,53.5 243.5,53.5 244.5,53.5C 244.5,52.5 244.5,51.5 244.5,50.5C 242.167,50.5 239.833,50.5 237.5,50.5C 237.5,47.5 237.5,44.5 237.5,41.5C 247.45,42.2793 254.617,38.2793 259,29.5C 259.596,19.6964 255.096,13.6964 245.5,11.5C 249.652,9.93827 253.985,9.2716 258.5,9.5C 258.5,6.16667 258.5,2.83333 258.5,-0.5 Z"/></g>
<g><path style="opacity:1" fill="#f2f2f2" d="M 290.5,-0.5 C 307.833,-0.5 325.167,-0.5 342.5,-0.5C 342.5,3.5 342.5,7.5 342.5,11.5C 341.903,11.7352 341.57,12.2352 341.5,13C 343.667,17.5471 342.667,21.5471 338.5,25C 337.552,25.4828 336.552,25.6495 335.5,25.5C 334.642,22.3025 333.309,19.3025 331.5,16.5C 332.547,14.9436 333.214,13.2769 333.5,11.5C 330.5,11.5 327.5,11.5 324.5,11.5C 324.5,12.5 324.5,13.5 324.5,14.5C 326.606,14.679 328.272,15.679 329.5,17.5C 331.167,20.5 332.833,23.5 334.5,26.5C 335.491,30.4454 335.824,34.4454 335.5,38.5C 334.167,38.5 332.833,38.5 331.5,38.5C 331.5,39.5 331.5,40.5 331.5,41.5C 335.167,41.5 338.833,41.5 342.5,41.5C 342.5,44.5 342.5,47.5 342.5,50.5C 337.833,50.5 333.167,50.5 328.5,50.5C 328.5,51.5 328.5,52.5 328.5,53.5C 329.5,53.5 330.5,53.5 331.5,53.5C 331.142,56.2666 330.475,58.9333 329.5,61.5C 326.946,62.388 324.279,62.7214 321.5,62.5C 321.5,65.8333 321.5,69.1667 321.5,72.5C 319.833,72.5 318.167,72.5 316.5,72.5C 315.167,72.5 313.833,72.5 312.5,72.5C 312.5,74.1667 312.5,75.8333 312.5,77.5C 309.5,77.5 306.5,77.5 303.5,77.5C 303.5,69.5 303.5,61.5 303.5,53.5C 304.5,53.5 305.5,53.5 306.5,53.5C 306.5,52.5 306.5,51.5 306.5,50.5C 304.5,50.5 302.5,50.5 300.5,50.5C 300.5,47.5 300.5,44.5 300.5,41.5C 297.5,41.5 294.5,41.5 291.5,41.5C 291.5,40.5 291.5,39.5 291.5,38.5C 290.5,38.5 289.5,38.5 288.5,38.5C 288.17,32.1318 288.504,25.7985 289.5,19.5C 295.54,25.9175 300.873,32.9175 305.5,40.5C 305.56,41.0431 305.893,41.3764 306.5,41.5C 307.498,32.5246 307.832,23.5246 307.5,14.5C 308.5,14.5 309.5,14.5 310.5,14.5C 310.5,13.5 310.5,12.5 310.5,11.5C 307.167,11.5 303.833,11.5 300.5,11.5C 300.5,12.5 300.5,13.5 300.5,14.5C 301.5,14.5 302.5,14.5 303.5,14.5C 303.666,20.5092 303.499,26.5092 303,32.5C 298.702,26.1849 294.202,20.1849 289.5,14.5C 290.451,13.0813 290.784,11.4147 290.5,9.5C 290.5,6.16667 290.5,2.83333 290.5,-0.5 Z"/></g>
<g><path style="opacity:1" fill="#f7f7f7" d="M 342.5,-0.5 C 360.167,-0.5 377.833,-0.5 395.5,-0.5C 395.5,34.5 395.5,69.5 395.5,104.5C 391.833,104.5 388.167,104.5 384.5,104.5C 384.5,100.833 384.5,97.1667 384.5,93.5C 381.167,93.5 377.833,93.5 374.5,93.5C 374.5,90.1667 374.5,86.8333 374.5,83.5C 370.833,83.5 367.167,83.5 363.5,83.5C 363.5,79.8333 363.5,76.1667 363.5,72.5C 360.167,72.5 356.833,72.5 353.5,72.5C 353.5,69.1667 353.5,65.8333 353.5,62.5C 349.833,62.5 346.167,62.5 342.5,62.5C 342.423,58.7852 342.756,55.1185 343.5,51.5C 346.833,51.5 350.167,51.5 353.5,51.5C 353.5,48.1667 353.5,44.8333 353.5,41.5C 350.167,41.5 346.833,41.5 343.5,41.5C 342.886,37.8648 342.552,34.1981 342.5,30.5C 346.167,30.5 349.833,30.5 353.5,30.5C 353.5,27.1667 353.5,23.8333 353.5,20.5C 350.615,20.8064 347.948,20.4731 345.5,19.5C 345.183,15.8284 346.849,14.1617 350.5,14.5C 350.5,13.5 350.5,12.5 350.5,11.5C 347.833,11.5 345.167,11.5 342.5,11.5C 342.5,7.5 342.5,3.5 342.5,-0.5 Z"/></g>
<g><path style="opacity:1" fill="#4e4e4d" d="M 274.5,0.5 C 276.686,0.510636 277.519,1.51064 277,3.5C 268.132,10.4463 267.299,9.4463 274.5,0.5 Z"/></g>
<g><path style="opacity:1" fill="#0d0d0c" d="M 101.5,117.5 C 96.1586,120.836 90.8252,124.17 85.5,127.5C 81.8333,127.5 78.1667,127.5 74.5,127.5C 32.3655,101.642 18.1988,64.6416 32,16.5C 37.0234,13.1014 42.5234,10.7681 48.5,9.5C 69.094,4.35966 89.7606,4.193 110.5,9C 116.502,10.7528 122.335,12.9194 128,15.5C 138.269,46.613 134.269,75.613 116,102.5C 110.963,107.369 106.13,112.369 101.5,117.5 Z"/></g>
<g><path style="opacity:1" fill="#ea161d" d="M 70.5,8.5 C 73.5,8.5 76.5,8.5 79.5,8.5C 79.5,23.1667 79.5,37.8333 79.5,52.5C 63.1667,52.5 46.8333,52.5 30.5,52.5C 29.8286,40.5328 31.3286,28.8661 35,17.5C 46.1759,11.942 58.0092,8.94202 70.5,8.5 Z"/></g>
<g><path style="opacity:1" fill="#720b0c" d="M 70.5,8.5 C 73.6248,7.52056 76.9581,7.18723 80.5,7.5C 80.8294,22.676 80.4961,37.676 79.5,52.5C 79.5,37.8333 79.5,23.1667 79.5,8.5C 76.5,8.5 73.5,8.5 70.5,8.5 Z"/></g>
<g><path style="opacity:1" fill="#7e7e7e" d="M 86.5,8.5 C 85.504,22.9905 85.1707,37.6572 85.5,52.5C 84.1738,37.6614 84.1738,22.6614 85.5,7.5C 86.1067,7.62358 86.44,7.95691 86.5,8.5 Z"/></g>
<g><path style="opacity:1" fill="#fefefe" d="M 86.5,8.5 C 91.1811,8.66861 95.8478,9.00195 100.5,9.5C 100.5,23.8333 100.5,38.1667 100.5,52.5C 95.5,52.5 90.5,52.5 85.5,52.5C 85.1707,37.6572 85.504,22.9905 86.5,8.5 Z"/></g>
<g><path style="opacity:1" fill="#f6f6f6" d="M -0.5,-0.5 C 15.8333,-0.5 32.1667,-0.5 48.5,-0.5C 48.5,2.83333 48.5,6.16667 48.5,9.5C 42.5234,10.7681 37.0234,13.1014 32,16.5C 18.1988,64.6416 32.3655,101.642 74.5,127.5C 49.5,127.5 24.5,127.5 -0.5,127.5C -0.5,84.8333 -0.5,42.1667 -0.5,-0.5 Z"/></g>
<g><path style="opacity:1" fill="#fcda42" d="M 105.5,11.5 C 112.879,12.3483 119.712,14.6816 126,18.5C 128.737,29.6815 130.237,41.0148 130.5,52.5C 122.167,52.5 113.833,52.5 105.5,52.5C 105.5,38.8333 105.5,25.1667 105.5,11.5 Z"/></g>
<g><path style="opacity:1" fill="#373735" d="M 165.5,30.5 C 165.002,33.8286 164.002,36.9953 162.5,40C 159.607,41.1488 156.607,41.6488 153.5,41.5C 149.811,39.8751 148.145,36.8751 148.5,32.5C 149.833,32.5 151.167,32.5 152.5,32.5C 150.696,38.6396 153.029,40.8062 159.5,39C 161.179,36.4355 161.846,33.6021 161.5,30.5C 161.5,25.1667 161.5,19.8333 161.5,14.5C 160.167,14.5 158.833,14.5 157.5,14.5C 157.5,13.5 157.5,12.5 157.5,11.5C 161.167,11.5 164.833,11.5 168.5,11.5C 168.5,12.5 168.5,13.5 168.5,14.5C 167.5,14.5 166.5,14.5 165.5,14.5C 165.5,19.8333 165.5,25.1667 165.5,30.5 Z"/></g>
<g><path style="opacity:1" fill="#2d2d2b" d="M 195.5,31.5 C 196.038,33.1172 196.371,34.7839 196.5,36.5C 197.007,37.8589 198.007,38.8589 199.5,39.5C 196.572,40.4841 193.572,40.8174 190.5,40.5C 190.821,38.9519 191.821,38.2852 193.5,38.5C 193.167,36.5 192.833,34.5 192.5,32.5C 190.603,31.1952 188.269,30.5286 185.5,30.5C 182.731,30.5286 180.397,31.1952 178.5,32.5C 177.659,34.3792 177.325,36.3792 177.5,38.5C 179.179,38.2852 180.179,38.9519 180.5,40.5C 177.428,40.8174 174.428,40.4841 171.5,39.5C 172.993,38.8589 173.993,37.8589 174.5,36.5C 176.099,30.705 178.099,25.0383 180.5,19.5C 181.038,17.8828 181.371,16.2161 181.5,14.5C 180.5,14.5 179.5,14.5 178.5,14.5C 178.5,13.5 178.5,12.5 178.5,11.5C 183.167,11.5 187.833,11.5 192.5,11.5C 192.5,12.5 192.5,13.5 192.5,14.5C 191.5,14.5 190.5,14.5 189.5,14.5C 190.448,20.6729 192.448,26.3396 195.5,31.5 Z"/></g>
<g><path style="opacity:1" fill="#363635" d="M 227.5,41.5 C 225.833,41.5 224.167,41.5 222.5,41.5C 221.657,37.4784 219.99,33.8117 217.5,30.5C 215.604,29.5344 213.604,29.2011 211.5,29.5C 211.5,32.5 211.5,35.5 211.5,38.5C 212.5,38.5 213.5,38.5 214.5,38.5C 214.5,39.5 214.5,40.5 214.5,41.5C 211.833,41.5 209.167,41.5 206.5,41.5C 204.952,41.1788 204.285,40.1788 204.5,38.5C 205.5,38.5 206.5,38.5 207.5,38.5C 207.5,30.5 207.5,22.5 207.5,14.5C 206.5,14.5 205.5,14.5 204.5,14.5C 204.5,13.5 204.5,12.5 204.5,11.5C 208.514,11.3345 212.514,11.5012 216.5,12C 219.458,12.2293 221.958,13.396 224,15.5C 224.738,19.2613 224.405,22.9279 223,26.5C 221.989,27.3366 220.822,27.67 219.5,27.5C 220.602,31.0367 222.268,34.37 224.5,37.5C 225.689,38.4287 227.022,38.762 228.5,38.5C 228.737,39.791 228.404,40.791 227.5,41.5 Z"/></g>
<g><path style="opacity:1" fill="#393937" d="M 245.5,11.5 C 255.096,13.6964 259.596,19.6964 259,29.5C 254.617,38.2793 247.45,42.2793 237.5,41.5C 235.833,41.5 234.167,41.5 232.5,41.5C 232.5,40.5 232.5,39.5 232.5,38.5C 233.5,38.5 234.5,38.5 235.5,38.5C 235.5,30.5 235.5,22.5 235.5,14.5C 234.5,14.5 233.5,14.5 232.5,14.5C 232.5,13.5 232.5,12.5 232.5,11.5C 236.833,11.5 241.167,11.5 245.5,11.5 Z"/></g>
<g><path style="opacity:1" fill="#3e3e3c" d="M 272.5,20.5 C 272.5,26.5 272.5,32.5 272.5,38.5C 273.5,38.5 274.5,38.5 275.5,38.5C 275.5,39.5 275.5,40.5 275.5,41.5C 273.5,41.5 271.5,41.5 269.5,41.5C 268.167,41.5 266.833,41.5 265.5,41.5C 265.5,40.5 265.5,39.5 265.5,38.5C 266.5,38.5 267.5,38.5 268.5,38.5C 268.5,30.5 268.5,22.5 268.5,14.5C 267.5,14.5 266.5,14.5 265.5,14.5C 265.5,13.5 265.5,12.5 265.5,11.5C 268.833,11.5 272.167,11.5 275.5,11.5C 275.5,12.5 275.5,13.5 275.5,14.5C 274.5,14.5 273.5,14.5 272.5,14.5C 272.5,16.5 272.5,18.5 272.5,20.5 Z"/></g>
<g><path style="opacity:1" fill="#373736" d="M 289.5,14.5 C 294.202,20.1849 298.702,26.1849 303,32.5C 303.499,26.5092 303.666,20.5092 303.5,14.5C 302.5,14.5 301.5,14.5 300.5,14.5C 300.5,13.5 300.5,12.5 300.5,11.5C 303.833,11.5 307.167,11.5 310.5,11.5C 310.5,12.5 310.5,13.5 310.5,14.5C 309.5,14.5 308.5,14.5 307.5,14.5C 306.833,23.1667 306.167,31.8333 305.5,40.5C 300.873,32.9175 295.54,25.9175 289.5,19.5C 288.504,25.7985 288.17,32.1318 288.5,38.5C 289.5,38.5 290.5,38.5 291.5,38.5C 291.5,39.5 291.5,40.5 291.5,41.5C 288.167,41.5 284.833,41.5 281.5,41.5C 281.5,40.5 281.5,39.5 281.5,38.5C 282.5,38.5 283.5,38.5 284.5,38.5C 284.5,30.5 284.5,22.5 284.5,14.5C 283.5,14.5 282.5,14.5 281.5,14.5C 281.5,13.5 281.5,12.5 281.5,11.5C 284.942,10.8283 287.609,11.8283 289.5,14.5 Z"/></g>
<g><path style="opacity:1" fill="#333331" d="M 342.5,11.5 C 345.167,11.5 347.833,11.5 350.5,11.5C 350.5,12.5 350.5,13.5 350.5,14.5C 346.849,14.1617 345.183,15.8284 345.5,19.5C 343.335,21.9712 341.168,24.6379 339,27.5C 338.501,31.1516 338.335,34.8183 338.5,38.5C 339.833,38.5 341.167,38.5 342.5,38.5C 342.5,39.5 342.5,40.5 342.5,41.5C 338.833,41.5 335.167,41.5 331.5,41.5C 331.5,40.5 331.5,39.5 331.5,38.5C 332.833,38.5 334.167,38.5 335.5,38.5C 335.824,34.4454 335.491,30.4454 334.5,26.5C 332.833,23.5 331.167,20.5 329.5,17.5C 328.272,15.679 326.606,14.679 324.5,14.5C 324.5,13.5 324.5,12.5 324.5,11.5C 327.5,11.5 330.5,11.5 333.5,11.5C 333.214,13.2769 332.547,14.9436 331.5,16.5C 333.309,19.3025 334.642,22.3025 335.5,25.5C 336.552,25.6495 337.552,25.4828 338.5,25C 342.667,21.5471 343.667,17.5471 341.5,13C 341.57,12.2352 341.903,11.7352 342.5,11.5 Z"/></g>
<g><path style="opacity:1" fill="#f4f4f4" d="M 122.5,-0.5 C 150.5,-0.5 178.5,-0.5 206.5,-0.5C 206.5,2.83333 206.5,6.16667 206.5,9.5C 202.833,9.5 199.167,9.5 195.5,9.5C 195.5,13.1667 195.5,16.8333 195.5,20.5C 199.167,20.5 202.833,20.5 206.5,20.5C 206.5,23.8333 206.5,27.1667 206.5,30.5C 202.629,30.185 198.962,30.5184 195.5,31.5C 192.448,26.3396 190.448,20.6729 189.5,14.5C 190.5,14.5 191.5,14.5 192.5,14.5C 192.5,13.5 192.5,12.5 192.5,11.5C 187.833,11.5 183.167,11.5 178.5,11.5C 178.5,12.5 178.5,13.5 178.5,14.5C 179.5,14.5 180.5,14.5 181.5,14.5C 181.371,16.2161 181.038,17.8828 180.5,19.5C 178.621,20.3414 176.621,20.6747 174.5,20.5C 174.5,23.8333 174.5,27.1667 174.5,30.5C 171.5,30.5 168.5,30.5 165.5,30.5C 165.5,25.1667 165.5,19.8333 165.5,14.5C 166.5,14.5 167.5,14.5 168.5,14.5C 168.5,13.5 168.5,12.5 168.5,11.5C 164.833,11.5 161.167,11.5 157.5,11.5C 157.5,12.5 157.5,13.5 157.5,14.5C 158.833,14.5 160.167,14.5 161.5,14.5C 161.5,19.8333 161.5,25.1667 161.5,30.5C 155.5,30.5 149.5,30.5 143.5,30.5C 143.5,27.1667 143.5,23.8333 143.5,20.5C 139.833,20.5 136.167,20.5 132.5,20.5C 132.5,16.8333 132.5,13.1667 132.5,9.5C 129.167,9.5 125.833,9.5 122.5,9.5C 122.5,6.16667 122.5,2.83333 122.5,-0.5 Z"/></g>
<g><path style="opacity:1" fill="#f5f5f5" d="M 184.5,16.5 C 185.376,16.3691 186.043,16.7025 186.5,17.5C 187.74,21.0558 189.073,24.5558 190.5,28C 187.118,28.8236 183.784,28.657 180.5,27.5C 181.84,23.8098 183.174,20.1431 184.5,16.5 Z"/></g>
<g><path style="opacity:1" fill="#787878" d="M 211.5,14.5 C 211.5,18.5 211.5,22.5 211.5,26.5C 213.5,26.5 215.5,26.5 217.5,26.5C 215.393,27.4682 213.059,27.8016 210.5,27.5C 210.182,22.9677 210.515,18.6344 211.5,14.5 Z"/></g>
<g><path style="opacity:1" fill="#f1f1f1" d="M 211.5,14.5 C 218.827,13.3293 221.994,16.3293 221,23.5C 220.28,25.0557 219.113,26.0557 217.5,26.5C 215.5,26.5 213.5,26.5 211.5,26.5C 211.5,22.5 211.5,18.5 211.5,14.5 Z"/></g>
<g><path style="opacity:1" fill="#777777" d="M 307.5,14.5 C 307.832,23.5246 307.498,32.5246 306.5,41.5C 305.893,41.3764 305.56,41.0431 305.5,40.5C 306.167,31.8333 306.833,23.1667 307.5,14.5 Z"/></g>
<g><path style="opacity:1" fill="#787878" d="M 192.5,32.5 C 187.833,31.1667 183.167,31.1667 178.5,32.5C 180.397,31.1952 182.731,30.5286 185.5,30.5C 188.269,30.5286 190.603,31.1952 192.5,32.5 Z"/></g>
<g><path style="opacity:1" fill="#f4f4f4" d="M 239.5,14.5 C 252.117,13.6756 257.284,19.3422 255,31.5C 251.639,37.669 246.472,40.0023 239.5,38.5C 239.5,30.5 239.5,22.5 239.5,14.5 Z"/></g>
<g><path style="opacity:1" fill="#868686" d="M 196.5,36.5 C 197.708,37.2341 199.041,37.5674 200.5,37.5C 200.5,38.8333 200.5,40.1667 200.5,41.5C 196.958,41.8128 193.625,41.4794 190.5,40.5C 193.572,40.8174 196.572,40.4841 199.5,39.5C 198.007,38.8589 197.007,37.8589 196.5,36.5 Z"/></g>
<g><path style="opacity:1" fill="#efefef" d="M 180.5,19.5 C 178.099,25.0383 176.099,30.705 174.5,36.5C 173.292,37.2341 171.959,37.5674 170.5,37.5C 170.5,38.8333 170.5,40.1667 170.5,41.5C 174.042,41.8128 177.375,41.4794 180.5,40.5C 180.179,38.9519 179.179,38.2852 177.5,38.5C 177.325,36.3792 177.659,34.3792 178.5,32.5C 183.167,31.1667 187.833,31.1667 192.5,32.5C 192.833,34.5 193.167,36.5 193.5,38.5C 191.821,38.2852 190.821,38.9519 190.5,40.5C 193.625,41.4794 196.958,41.8128 200.5,41.5C 201.5,41.5 202.5,41.5 203.5,41.5C 203.263,40.209 203.596,39.209 204.5,38.5C 204.285,40.1788 204.952,41.1788 206.5,41.5C 206.5,44.8333 206.5,48.1667 206.5,51.5C 202.833,51.5 199.167,51.5 195.5,51.5C 195.5,55.1667 195.5,58.8333 195.5,62.5C 198.167,62.5 200.833,62.5 203.5,62.5C 202.506,65.8969 202.84,69.2302 204.5,72.5C 201.391,72.2641 198.391,72.5975 195.5,73.5C 193.515,67.8553 189.515,64.1886 183.5,62.5C 180.584,60.0089 179.918,57.0089 181.5,53.5C 184.421,52.5934 187.421,52.2601 190.5,52.5C 190.116,54.6648 190.783,56.3315 192.5,57.5C 194.49,56.5373 194.823,55.204 193.5,53.5C 189.156,50.2073 184.489,49.7073 179.5,52C 176.226,57.4646 177.226,61.9646 182.5,65.5C 185.986,66.1723 189.153,67.5057 192,69.5C 192.771,77.3857 189.271,80.2191 181.5,78C 179.808,76.5993 179.141,74.7659 179.5,72.5C 178.5,72.5 177.5,72.5 176.5,72.5C 177.444,79.4609 181.444,81.9609 188.5,80C 191.5,79.3083 193.833,77.8083 195.5,75.5C 195.5,78.1667 195.5,80.8333 195.5,83.5C 192.167,83.5 188.833,83.5 185.5,83.5C 185.5,85.1667 185.5,86.8333 185.5,88.5C 184.209,88.2627 183.209,88.596 182.5,89.5C 183.5,90.8333 184.5,92.1667 185.5,93.5C 181.833,93.5 178.167,93.5 174.5,93.5C 174.5,90.1667 174.5,86.8333 174.5,83.5C 171.167,83.5 167.833,83.5 164.5,83.5C 164.5,82.5 164.5,81.5 164.5,80.5C 166.5,80.5 168.5,80.5 170.5,80.5C 170.802,77.9407 170.468,75.6074 169.5,73.5C 167.824,74.1834 167.157,75.5168 167.5,77.5C 163.5,77.5 159.5,77.5 155.5,77.5C 155.5,73.8333 155.5,70.1667 155.5,66.5C 159.329,67.069 162.663,66.4023 165.5,64.5C 162.713,63.5233 159.713,63.19 156.5,63.5C 156.5,60.1667 156.5,56.8333 156.5,53.5C 159.833,53.5 163.167,53.5 166.5,53.5C 166.5,55.1667 166.5,56.8333 166.5,58.5C 167.833,58.5 169.167,58.5 170.5,58.5C 170.5,55.8333 170.5,53.1667 170.5,50.5C 164.833,50.5 159.167,50.5 153.5,50.5C 153.5,47.5 153.5,44.5 153.5,41.5C 156.607,41.6488 159.607,41.1488 162.5,40C 164.002,36.9953 165.002,33.8286 165.5,30.5C 168.5,30.5 171.5,30.5 174.5,30.5C 174.5,27.1667 174.5,23.8333 174.5,20.5C 176.621,20.6747 178.621,20.3414 180.5,19.5 Z"/></g>
<g><path style="opacity:1" fill="#838383" d="M 174.5,36.5 C 173.993,37.8589 172.993,38.8589 171.5,39.5C 174.428,40.4841 177.428,40.8174 180.5,40.5C 177.375,41.4794 174.042,41.8128 170.5,41.5C 170.5,40.1667 170.5,38.8333 170.5,37.5C 171.959,37.5674 173.292,37.2341 174.5,36.5 Z"/></g>
<g><path style="opacity:1" fill="#282826" d="M 195.5,73.5 C 195.5,74.1667 195.5,74.8333 195.5,75.5C 193.833,77.8083 191.5,79.3083 188.5,80C 181.444,81.9609 177.444,79.4609 176.5,72.5C 177.5,72.5 178.5,72.5 179.5,72.5C 179.141,74.7659 179.808,76.5993 181.5,78C 189.271,80.2191 192.771,77.3857 192,69.5C 189.153,67.5057 185.986,66.1723 182.5,65.5C 177.226,61.9646 176.226,57.4646 179.5,52C 184.489,49.7073 189.156,50.2073 193.5,53.5C 194.823,55.204 194.49,56.5373 192.5,57.5C 190.783,56.3315 190.116,54.6648 190.5,52.5C 187.421,52.2601 184.421,52.5934 181.5,53.5C 179.918,57.0089 180.584,60.0089 183.5,62.5C 189.515,64.1886 193.515,67.8553 195.5,73.5 Z"/></g>
<g><path style="opacity:1" fill="#30302e" d="M 204.5,72.5 C 202.84,69.2302 202.506,65.8969 203.5,62.5C 205.34,54.7177 210.34,50.3844 218.5,49.5C 221.613,50.5559 224.613,51.8892 227.5,53.5C 228.466,55.396 228.799,57.396 228.5,59.5C 227.167,59.5 225.833,59.5 224.5,59.5C 224.799,57.396 224.466,55.396 223.5,53.5C 213.615,50.7257 207.949,54.3924 206.5,64.5C 207.781,78.1301 214.448,81.7967 226.5,75.5C 227.471,76.9621 227.138,78.2954 225.5,79.5C 219.627,82.1248 213.96,81.6248 208.5,78C 206.531,76.5002 205.198,74.6669 204.5,72.5 Z"/></g>
<g><path style="opacity:1" fill="#262624" d="M 149.5,51.5 C 156.167,51.5 162.833,51.5 169.5,51.5C 169.799,53.604 169.466,55.604 168.5,57.5C 167.828,56.0508 167.161,54.7175 166.5,53.5C 163.167,53.5 159.833,53.5 156.5,53.5C 155.518,56.9619 155.185,60.6286 155.5,64.5C 158.833,64.5 162.167,64.5 165.5,64.5C 162.663,66.4023 159.329,67.069 155.5,66.5C 155.5,70.1667 155.5,73.8333 155.5,77.5C 159.5,77.5 163.5,77.5 167.5,77.5C 167.157,75.5168 167.824,74.1834 169.5,73.5C 169.5,75.5 169.5,77.5 169.5,79.5C 162.833,79.5 156.167,79.5 149.5,79.5C 149.821,77.9519 150.821,77.2852 152.5,77.5C 152.5,69.5 152.5,61.5 152.5,53.5C 150.821,53.7148 149.821,53.0481 149.5,51.5 Z"/></g>
<g><path style="opacity:1" fill="#767676" d="M 149.5,51.5 C 150.568,50.5655 151.901,50.2322 153.5,50.5C 159.167,50.5 164.833,50.5 170.5,50.5C 170.5,53.1667 170.5,55.8333 170.5,58.5C 169.167,58.5 167.833,58.5 166.5,58.5C 166.5,56.8333 166.5,55.1667 166.5,53.5C 167.161,54.7175 167.828,56.0508 168.5,57.5C 169.466,55.604 169.799,53.604 169.5,51.5C 162.833,51.5 156.167,51.5 149.5,51.5 Z"/></g>
<g><path style="opacity:1" fill="#3c3c3b" d="M 237.5,50.5 C 239.833,50.5 242.167,50.5 244.5,50.5C 244.5,51.5 244.5,52.5 244.5,53.5C 243.5,53.5 242.5,53.5 241.5,53.5C 241.334,60.5079 241.5,67.5079 242,74.5C 242.927,77.7186 245.094,79.0519 248.5,78.5C 251.906,79.0519 254.073,77.7186 255,74.5C 255.5,67.5079 255.666,60.5079 255.5,53.5C 254.5,53.5 253.5,53.5 252.5,53.5C 252.5,52.5 252.5,51.5 252.5,50.5C 255.833,50.5 259.167,50.5 262.5,50.5C 262.5,51.5 262.5,52.5 262.5,53.5C 261.5,53.5 260.5,53.5 259.5,53.5C 259.756,60.2244 259.423,66.891 258.5,73.5C 258.5,73.8333 258.5,74.1667 258.5,74.5C 254.277,81.4238 248.61,82.7571 241.5,78.5C 240.081,76.6641 238.914,74.6641 238,72.5C 237.5,66.1754 237.334,59.8421 237.5,53.5C 235.821,53.7148 234.821,53.0481 234.5,51.5C 235.209,50.596 236.209,50.2627 237.5,50.5 Z"/></g>
<g><path style="opacity:1" fill="#262624" d="M 268.5,51.5 C 275.167,51.5 281.833,51.5 288.5,51.5C 288.799,53.604 288.466,55.604 287.5,57.5C 286.828,56.0508 286.161,54.7175 285.5,53.5C 282.167,53.5 278.833,53.5 275.5,53.5C 274.518,56.9619 274.185,60.6286 274.5,64.5C 277.833,64.5 281.167,64.5 284.5,64.5C 281.663,66.4023 278.329,67.069 274.5,66.5C 274.5,70.1667 274.5,73.8333 274.5,77.5C 278.5,77.5 282.5,77.5 286.5,77.5C 286.157,75.5168 286.824,74.1834 288.5,73.5C 288.5,75.5 288.5,77.5 288.5,79.5C 281.833,79.5 275.167,79.5 268.5,79.5C 268.821,77.9519 269.821,77.2852 271.5,77.5C 271.5,72.5 271.5,67.5 271.5,62.5C 271.5,59.5 271.5,56.5 271.5,53.5C 269.821,53.7148 268.821,53.0481 268.5,51.5 Z"/></g>
<g><path style="opacity:1" fill="#787878" d="M 268.5,51.5 C 268.5,50.8333 268.833,50.5 269.5,50.5C 276.167,50.5 282.833,50.5 289.5,50.5C 289.5,53.1667 289.5,55.8333 289.5,58.5C 288.167,58.5 286.833,58.5 285.5,58.5C 285.5,56.8333 285.5,55.1667 285.5,53.5C 286.161,54.7175 286.828,56.0508 287.5,57.5C 288.466,55.604 288.799,53.604 288.5,51.5C 281.833,51.5 275.167,51.5 268.5,51.5 Z"/></g>
<g><path style="opacity:1" fill="#363634" d="M 300.5,50.5 C 302.5,50.5 304.5,50.5 306.5,50.5C 306.5,51.5 306.5,52.5 306.5,53.5C 305.5,53.5 304.5,53.5 303.5,53.5C 303.5,61.5 303.5,69.5 303.5,77.5C 306.5,77.5 309.5,77.5 312.5,77.5C 313.161,76.2825 313.828,74.9492 314.5,73.5C 315.466,75.396 315.799,77.396 315.5,79.5C 309.167,79.5 302.833,79.5 296.5,79.5C 296.821,77.9519 297.821,77.2852 299.5,77.5C 299.5,69.5 299.5,61.5 299.5,53.5C 298.5,53.5 297.5,53.5 296.5,53.5C 296.5,52.5 296.5,51.5 296.5,50.5C 297.833,50.5 299.167,50.5 300.5,50.5 Z"/></g>
<g><path style="opacity:1" fill="#2e2e2d" d="M 342.5,50.5 C 342.5,51.5 342.5,52.5 342.5,53.5C 341.5,53.5 340.5,53.5 339.5,53.5C 341.785,60.8095 344.119,68.1428 346.5,75.5C 347.007,76.8589 348.007,77.8589 349.5,78.5C 346.572,79.4841 343.572,79.8174 340.5,79.5C 340.821,77.9519 341.821,77.2852 343.5,77.5C 343.167,75.5 342.833,73.5 342.5,71.5C 340.603,70.1952 338.269,69.5286 335.5,69.5C 332.731,69.5286 330.397,70.1952 328.5,71.5C 327.659,73.3792 327.325,75.3792 327.5,77.5C 328.5,77.5 329.5,77.5 330.5,77.5C 330.5,78.5 330.5,79.5 330.5,80.5C 327.167,80.5 323.833,80.5 320.5,80.5C 320.5,79.5 320.5,78.5 320.5,77.5C 321.833,77.5 323.167,77.5 324.5,77.5C 325.558,71.9231 327.225,66.5898 329.5,61.5C 330.475,58.9333 331.142,56.2666 331.5,53.5C 330.5,53.5 329.5,53.5 328.5,53.5C 328.5,52.5 328.5,51.5 328.5,50.5C 333.167,50.5 337.833,50.5 342.5,50.5 Z"/></g>
<g><path style="opacity:1" fill="#767676" d="M 275.5,53.5 C 275.5,56.8333 275.5,60.1667 275.5,63.5C 278.713,63.19 281.713,63.5233 284.5,64.5C 281.167,64.5 277.833,64.5 274.5,64.5C 274.185,60.6286 274.518,56.9619 275.5,53.5 Z"/></g>
<g><path style="opacity:1" fill="#3b3b3b" d="M 80.5,57.5 C 63.8333,57.5 47.1667,57.5 30.5,57.5C 30.5,59.1667 30.5,60.8333 30.5,62.5C 29.5386,60.7354 29.2053,58.7354 29.5,56.5C 46.6749,56.1701 63.6749,56.5034 80.5,57.5 Z"/></g>
<g><path style="opacity:1" fill="#3a3a3a" d="M 130.5,57.5 C 122.167,57.5 113.833,57.5 105.5,57.5C 105.5,62.1667 105.5,66.8333 105.5,71.5C 104.513,66.6946 104.179,61.6946 104.5,56.5C 113.349,56.1736 122.016,56.507 130.5,57.5 Z"/></g>
<g><path style="opacity:1" fill="#f7f7f7" d="M 84.5,57.5 C 89.8333,57.5 95.1667,57.5 100.5,57.5C 100.5,61.8333 100.5,66.1667 100.5,70.5C 95.1667,70.5 89.8333,70.5 84.5,70.5C 84.5,66.1667 84.5,61.8333 84.5,57.5 Z"/></g>
<g><path style="opacity:1" fill="#f3f3f3" d="M 130.5,57.5 C 129.963,62.1863 129.296,66.853 128.5,71.5C 120.833,71.5 113.167,71.5 105.5,71.5C 105.5,66.8333 105.5,62.1667 105.5,57.5C 113.833,57.5 122.167,57.5 130.5,57.5 Z"/></g>
<g><path style="opacity:1" fill="#f4f4f4" d="M 80.5,57.5 C 80.5,61.8333 80.5,66.1667 80.5,70.5C 63.9273,71.1288 47.594,70.4621 31.5,68.5C 31.6747,66.3792 31.3414,64.3792 30.5,62.5C 30.5,60.8333 30.5,59.1667 30.5,57.5C 47.1667,57.5 63.8333,57.5 80.5,57.5 Z"/></g>
<g><path style="opacity:1" fill="#777777" d="M 156.5,53.5 C 156.5,56.8333 156.5,60.1667 156.5,63.5C 159.713,63.19 162.713,63.5233 165.5,64.5C 162.167,64.5 158.833,64.5 155.5,64.5C 155.185,60.6286 155.518,56.9619 156.5,53.5 Z"/></g>
<g><path style="opacity:1" fill="#f3f3f3" d="M 227.5,41.5 C 227.5,44.8333 227.5,48.1667 227.5,51.5C 229.833,51.5 232.167,51.5 234.5,51.5C 234.821,53.0481 235.821,53.7148 237.5,53.5C 237.334,59.8421 237.5,66.1754 238,72.5C 238.914,74.6641 240.081,76.6641 241.5,78.5C 248.61,82.7571 254.277,81.4238 258.5,74.5C 258.5,77.5 258.5,80.5 258.5,83.5C 255.167,83.5 251.833,83.5 248.5,83.5C 248.5,86.8333 248.5,90.1667 248.5,93.5C 244.833,93.5 241.167,93.5 237.5,93.5C 237.5,94.8333 237.5,96.1667 237.5,97.5C 236.262,95.7857 235.595,93.7857 235.5,91.5C 236.5,91.5 237.5,91.5 238.5,91.5C 238.5,90.5 238.5,89.5 238.5,88.5C 233.833,88.5 229.167,88.5 224.5,88.5C 224.5,89.5 224.5,90.5 224.5,91.5C 225.5,91.5 226.5,91.5 227.5,91.5C 225.239,99.2817 222.572,106.948 219.5,114.5C 218.675,115.386 217.675,115.719 216.5,115.5C 216.5,116.5 216.5,117.5 216.5,118.5C 216.5,120.833 216.5,123.167 216.5,125.5C 213.167,125.5 209.833,125.5 206.5,125.5C 206.5,121.833 206.5,118.167 206.5,114.5C 205.5,114.5 204.5,114.5 203.5,114.5C 203.737,113.209 203.404,112.209 202.5,111.5C 200.824,112.183 200.157,113.517 200.5,115.5C 196.5,115.5 192.5,115.5 188.5,115.5C 188.5,111.833 188.5,108.167 188.5,104.5C 192.329,105.069 195.663,104.402 198.5,102.5C 195.713,101.523 192.713,101.19 189.5,101.5C 189.5,98.1667 189.5,94.8333 189.5,91.5C 192.833,91.5 196.167,91.5 199.5,91.5C 199.5,93.1667 199.5,94.8333 199.5,96.5C 200.833,96.5 202.167,96.5 203.5,96.5C 203.5,93.8333 203.5,91.1667 203.5,88.5C 197.5,88.5 191.5,88.5 185.5,88.5C 185.5,86.8333 185.5,85.1667 185.5,83.5C 188.833,83.5 192.167,83.5 195.5,83.5C 195.5,80.8333 195.5,78.1667 195.5,75.5C 195.5,74.8333 195.5,74.1667 195.5,73.5C 198.391,72.5975 201.391,72.2641 204.5,72.5C 205.198,74.6669 206.531,76.5002 208.5,78C 213.96,81.6248 219.627,82.1248 225.5,79.5C 227.138,78.2954 227.471,76.9621 226.5,75.5C 214.448,81.7967 207.781,78.1301 206.5,64.5C 207.949,54.3924 213.615,50.7257 223.5,53.5C 224.466,55.396 224.799,57.396 224.5,59.5C 225.833,59.5 227.167,59.5 228.5,59.5C 228.799,57.396 228.466,55.396 227.5,53.5C 224.613,51.8892 221.613,50.5559 218.5,49.5C 210.34,50.3844 205.34,54.7177 203.5,62.5C 200.833,62.5 198.167,62.5 195.5,62.5C 195.5,58.8333 195.5,55.1667 195.5,51.5C 199.167,51.5 202.833,51.5 206.5,51.5C 206.5,48.1667 206.5,44.8333 206.5,41.5C 209.167,41.5 211.833,41.5 214.5,41.5C 214.5,40.5 214.5,39.5 214.5,38.5C 213.5,38.5 212.5,38.5 211.5,38.5C 211.5,35.5 211.5,32.5 211.5,29.5C 213.604,29.2011 215.604,29.5344 217.5,30.5C 219.99,33.8117 221.657,37.4784 222.5,41.5C 224.167,41.5 225.833,41.5 227.5,41.5 Z"/></g>
<g><path style="opacity:1" fill="#f3f3f3" d="M 333.5,55.5 C 334.675,55.281 335.675,55.6143 336.5,56.5C 337.74,60.0558 339.073,63.5558 340.5,67C 337.118,67.8236 333.784,67.657 330.5,66.5C 332.117,62.986 333.117,59.3193 333.5,55.5 Z"/></g>
<g><path style="opacity:1" fill="#605e5e" d="M 31.5,68.5 C 47.594,70.4621 63.9273,71.1288 80.5,70.5C 64.3419,71.4964 48.0085,71.8298 31.5,71.5C 31.5,70.5 31.5,69.5 31.5,68.5 Z"/></g>
<g><path style="opacity:1" fill="#f3f3f3" d="M 290.5,9.5 C 290.784,11.4147 290.451,13.0813 289.5,14.5C 287.609,11.8283 284.942,10.8283 281.5,11.5C 281.5,12.5 281.5,13.5 281.5,14.5C 282.5,14.5 283.5,14.5 284.5,14.5C 284.5,22.5 284.5,30.5 284.5,38.5C 283.5,38.5 282.5,38.5 281.5,38.5C 281.5,39.5 281.5,40.5 281.5,41.5C 284.833,41.5 288.167,41.5 291.5,41.5C 294.5,41.5 297.5,41.5 300.5,41.5C 300.5,44.5 300.5,47.5 300.5,50.5C 299.167,50.5 297.833,50.5 296.5,50.5C 296.5,51.5 296.5,52.5 296.5,53.5C 297.5,53.5 298.5,53.5 299.5,53.5C 299.5,61.5 299.5,69.5 299.5,77.5C 297.821,77.2852 296.821,77.9519 296.5,79.5C 301.305,80.4872 306.305,80.8205 311.5,80.5C 311.5,81.5 311.5,82.5 311.5,83.5C 314.833,83.5 318.167,83.5 321.5,83.5C 321.5,85.1667 321.5,86.8333 321.5,88.5C 315.974,88.1786 310.64,88.5119 305.5,89.5C 305.821,91.0481 306.821,91.7148 308.5,91.5C 308.5,99.5 308.5,107.5 308.5,115.5C 306.821,115.285 305.821,115.952 305.5,117.5C 305.5,117.833 305.5,118.167 305.5,118.5C 304.566,117.432 304.232,116.099 304.5,114.5C 303.167,114.5 301.833,114.5 300.5,114.5C 300.5,118.167 300.5,121.833 300.5,125.5C 297.167,125.5 293.833,125.5 290.5,125.5C 290.5,123.167 290.5,120.833 290.5,118.5C 291.833,118.5 293.167,118.5 294.5,118.5C 294.737,117.209 294.404,116.209 293.5,115.5C 292.5,115.5 291.5,115.5 290.5,115.5C 290.5,107.5 290.5,99.5 290.5,91.5C 292.833,91.5 295.167,91.5 297.5,91.5C 297.5,93.1667 297.5,94.8333 297.5,96.5C 298.5,96.5 299.5,96.5 300.5,96.5C 301.473,94.0521 301.806,91.3854 301.5,88.5C 292.833,88.5 284.167,88.5 275.5,88.5C 275.194,91.3854 275.527,94.0521 276.5,96.5C 277.5,96.5 278.5,96.5 279.5,96.5C 279.5,94.8333 279.5,93.1667 279.5,91.5C 281.833,91.5 284.167,91.5 286.5,91.5C 286.5,99.5 286.5,107.5 286.5,115.5C 285.5,115.5 284.5,115.5 283.5,115.5C 283.167,115.5 282.833,115.5 282.5,115.5C 281.791,114.596 280.791,114.263 279.5,114.5C 279.5,118.167 279.5,121.833 279.5,125.5C 269.167,125.5 258.833,125.5 248.5,125.5C 248.5,121.833 248.5,118.167 248.5,114.5C 250.167,114.5 251.833,114.5 253.5,114.5C 252.791,115.404 251.791,115.737 250.5,115.5C 250.5,116.5 250.5,117.5 250.5,118.5C 253.833,118.5 257.167,118.5 260.5,118.5C 260.5,117.5 260.5,116.5 260.5,115.5C 259.5,115.5 258.5,115.5 257.5,115.5C 257.5,112.5 257.5,109.5 257.5,106.5C 259.604,106.201 261.604,106.534 263.5,107.5C 265.99,110.812 267.657,114.478 268.5,118.5C 270.5,118.5 272.5,118.5 274.5,118.5C 274.5,117.5 274.5,116.5 274.5,115.5C 272.508,115.672 270.842,115.005 269.5,113.5C 267.647,110.673 266.313,107.673 265.5,104.5C 268.388,104.78 269.888,103.447 270,100.5C 271.673,93.7821 269.173,89.9487 262.5,89C 258.514,88.5012 254.514,88.3345 250.5,88.5C 250.5,89.5 250.5,90.5 250.5,91.5C 251.5,91.5 252.5,91.5 253.5,91.5C 253.5,95.8333 253.5,100.167 253.5,104.5C 251.833,104.5 250.167,104.5 248.5,104.5C 248.5,100.833 248.5,97.1667 248.5,93.5C 248.5,90.1667 248.5,86.8333 248.5,83.5C 251.833,83.5 255.167,83.5 258.5,83.5C 258.5,80.5 258.5,77.5 258.5,74.5C 258.5,74.1667 258.5,73.8333 258.5,73.5C 262.064,72.5773 265.731,72.244 269.5,72.5C 268.931,68.6707 269.598,65.3373 271.5,62.5C 271.5,67.5 271.5,72.5 271.5,77.5C 269.821,77.2852 268.821,77.9519 268.5,79.5C 275.313,80.4912 282.313,80.8245 289.5,80.5C 289.802,77.9407 289.468,75.6074 288.5,73.5C 286.824,74.1834 286.157,75.5168 286.5,77.5C 282.5,77.5 278.5,77.5 274.5,77.5C 274.5,73.8333 274.5,70.1667 274.5,66.5C 278.329,67.069 281.663,66.4023 284.5,64.5C 281.713,63.5233 278.713,63.19 275.5,63.5C 275.5,60.1667 275.5,56.8333 275.5,53.5C 278.833,53.5 282.167,53.5 285.5,53.5C 285.5,55.1667 285.5,56.8333 285.5,58.5C 286.833,58.5 288.167,58.5 289.5,58.5C 289.5,55.8333 289.5,53.1667 289.5,50.5C 282.833,50.5 276.167,50.5 269.5,50.5C 269.5,47.5 269.5,44.5 269.5,41.5C 271.5,41.5 273.5,41.5 275.5,41.5C 275.5,40.5 275.5,39.5 275.5,38.5C 274.5,38.5 273.5,38.5 272.5,38.5C 272.5,32.5 272.5,26.5 272.5,20.5C 274.833,20.5 277.167,20.5 279.5,20.5C 279.5,16.8333 279.5,13.1667 279.5,9.5C 283.167,9.5 286.833,9.5 290.5,9.5 Z"/></g>
<g><path style="opacity:1" fill="#e8e8e8" d="M 395.5,-0.5 C 395.833,-0.5 396.167,-0.5 396.5,-0.5C 396.5,42.1667 396.5,84.8333 396.5,127.5C 396.167,127.5 395.833,127.5 395.5,127.5C 395.5,123.167 395.5,118.833 395.5,114.5C 391.833,114.5 388.167,114.5 384.5,114.5C 384.5,118.167 384.5,121.833 384.5,125.5C 381.167,125.5 377.833,125.5 374.5,125.5C 374.5,121.833 374.5,118.167 374.5,114.5C 370.833,114.5 367.167,114.5 363.5,114.5C 363.5,118.167 363.5,121.833 363.5,125.5C 360.167,125.5 356.833,125.5 353.5,125.5C 353.5,121.833 353.5,118.167 353.5,114.5C 352.167,114.5 350.833,114.5 349.5,114.5C 350.824,111.864 350.824,109.198 349.5,106.5C 345.965,104.233 342.299,102.233 338.5,100.5C 335.584,98.0089 334.918,95.0089 336.5,91.5C 339.167,90.1667 341.833,90.1667 344.5,91.5C 345.148,93.1492 346.148,94.4825 347.5,95.5C 349.49,94.5373 349.823,93.204 348.5,91.5C 343.879,87.9846 339.046,87.6513 334,90.5C 331.314,95.9103 332.48,100.244 337.5,103.5C 340.314,105.105 343.314,106.105 346.5,106.5C 347.825,116.473 343.825,119.14 334.5,114.5C 335.246,113.264 335.579,111.93 335.5,110.5C 332.05,109.756 330.384,111.09 330.5,114.5C 329.167,114.5 327.833,114.5 326.5,114.5C 326.737,113.209 326.404,112.209 325.5,111.5C 323.824,112.183 323.157,113.517 323.5,115.5C 319.5,115.5 315.5,115.5 311.5,115.5C 311.5,111.833 311.5,108.167 311.5,104.5C 315.329,105.069 318.663,104.402 321.5,102.5C 318.713,101.523 315.713,101.19 312.5,101.5C 312.5,98.1667 312.5,94.8333 312.5,91.5C 315.833,91.5 319.167,91.5 322.5,91.5C 322.5,93.1667 322.5,94.8333 322.5,96.5C 323.833,96.5 325.167,96.5 326.5,96.5C 326.5,93.8333 326.5,91.1667 326.5,88.5C 324.833,88.5 323.167,88.5 321.5,88.5C 321.5,86.8333 321.5,85.1667 321.5,83.5C 318.167,83.5 314.833,83.5 311.5,83.5C 311.5,82.5 311.5,81.5 311.5,80.5C 313.167,80.5 314.833,80.5 316.5,80.5C 316.5,77.8333 316.5,75.1667 316.5,72.5C 318.167,72.5 319.833,72.5 321.5,72.5C 321.5,69.1667 321.5,65.8333 321.5,62.5C 324.279,62.7214 326.946,62.388 329.5,61.5C 327.225,66.5898 325.558,71.9231 324.5,77.5C 323.167,77.5 321.833,77.5 320.5,77.5C 320.5,78.5 320.5,79.5 320.5,80.5C 323.833,80.5 327.167,80.5 330.5,80.5C 330.5,79.5 330.5,78.5 330.5,77.5C 329.5,77.5 328.5,77.5 327.5,77.5C 327.325,75.3792 327.659,73.3792 328.5,71.5C 333.167,70.1667 337.833,70.1667 342.5,71.5C 342.833,73.5 343.167,75.5 343.5,77.5C 341.821,77.2852 340.821,77.9519 340.5,79.5C 343.625,80.4794 346.958,80.8128 350.5,80.5C 350.5,79.1667 350.5,77.8333 350.5,76.5C 349.041,76.5674 347.708,76.2341 346.5,75.5C 344.119,68.1428 341.785,60.8095 339.5,53.5C 340.5,53.5 341.5,53.5 342.5,53.5C 342.5,52.5 342.5,51.5 342.5,50.5C 342.5,47.5 342.5,44.5 342.5,41.5C 342.5,40.5 342.5,39.5 342.5,38.5C 341.167,38.5 339.833,38.5 338.5,38.5C 338.335,34.8183 338.501,31.1516 339,27.5C 341.168,24.6379 343.335,21.9712 345.5,19.5C 347.948,20.4731 350.615,20.8064 353.5,20.5C 353.5,23.8333 353.5,27.1667 353.5,30.5C 349.833,30.5 346.167,30.5 342.5,30.5C 342.552,34.1981 342.886,37.8648 343.5,41.5C 346.833,41.5 350.167,41.5 353.5,41.5C 353.5,44.8333 353.5,48.1667 353.5,51.5C 350.167,51.5 346.833,51.5 343.5,51.5C 342.756,55.1185 342.423,58.7852 342.5,62.5C 346.167,62.5 349.833,62.5 353.5,62.5C 353.5,65.8333 353.5,69.1667 353.5,72.5C 356.833,72.5 360.167,72.5 363.5,72.5C 363.5,76.1667 363.5,79.8333 363.5,83.5C 367.167,83.5 370.833,83.5 374.5,83.5C 374.5,86.8333 374.5,90.1667 374.5,93.5C 377.833,93.5 381.167,93.5 384.5,93.5C 384.5,97.1667 384.5,100.833 384.5,104.5C 388.167,104.5 391.833,104.5 395.5,104.5C 395.5,69.5 395.5,34.5 395.5,-0.5 Z"/></g>
<g><path style="opacity:1" fill="#7a7a7a" d="M 342.5,71.5 C 337.833,70.1667 333.167,70.1667 328.5,71.5C 330.397,70.1952 332.731,69.5286 335.5,69.5C 338.269,69.5286 340.603,70.1952 342.5,71.5 Z"/></g>
<g><path style="opacity:1" fill="#787878" d="M 288.5,73.5 C 289.468,75.6074 289.802,77.9407 289.5,80.5C 282.313,80.8245 275.313,80.4912 268.5,79.5C 275.167,79.5 281.833,79.5 288.5,79.5C 288.5,77.5 288.5,75.5 288.5,73.5 Z"/></g>
<g><path style="opacity:1" fill="#00a243" d="M 79.5,75.5 C 79.8298,92.3417 79.4965,109.008 78.5,125.5C 56.3486,115.353 41.6819,98.686 34.5,75.5C 49.5,75.5 64.5,75.5 79.5,75.5 Z"/></g>
<g><path style="opacity:1" fill="#005120" d="M 79.5,75.5 C 80.827,92.338 80.827,109.338 79.5,126.5C 78.8933,126.376 78.56,126.043 78.5,125.5C 79.4965,109.008 79.8298,92.3417 79.5,75.5 Z"/></g>
<g><path style="opacity:1" fill="#f5f5f5" d="M 84.5,75.5 C 89.8333,75.5 95.1667,75.5 100.5,75.5C 100.667,88.1711 100.5,100.838 100,113.5C 95.3552,117.655 90.3552,121.322 85,124.5C 84.5001,108.17 84.3334,91.8367 84.5,75.5 Z"/></g>
<g><path style="opacity:1" fill="#314590" d="M 105.5,75.5 C 112.508,75.3337 119.508,75.5004 126.5,76C 122.584,88.6637 115.751,99.4971 106,108.5C 105.5,97.505 105.333,86.505 105.5,75.5 Z"/></g>
<g><path style="opacity:1" fill="#868686" d="M 346.5,75.5 C 347.708,76.2341 349.041,76.5674 350.5,76.5C 350.5,77.8333 350.5,79.1667 350.5,80.5C 346.958,80.8128 343.625,80.4794 340.5,79.5C 343.572,79.8174 346.572,79.4841 349.5,78.5C 348.007,77.8589 347.007,76.8589 346.5,75.5 Z"/></g>
<g><path style="opacity:1" fill="#787878" d="M 169.5,73.5 C 170.468,75.6074 170.802,77.9407 170.5,80.5C 168.5,80.5 166.5,80.5 164.5,80.5C 159.305,80.8205 154.305,80.4872 149.5,79.5C 156.167,79.5 162.833,79.5 169.5,79.5C 169.5,77.5 169.5,75.5 169.5,73.5 Z"/></g>
<g><path style="opacity:1" fill="#787878" d="M 316.5,72.5 C 316.5,75.1667 316.5,77.8333 316.5,80.5C 314.833,80.5 313.167,80.5 311.5,80.5C 306.305,80.8205 301.305,80.4872 296.5,79.5C 302.833,79.5 309.167,79.5 315.5,79.5C 315.799,77.396 315.466,75.396 314.5,73.5C 313.828,74.9492 313.161,76.2825 312.5,77.5C 312.5,75.8333 312.5,74.1667 312.5,72.5C 313.833,72.5 315.167,72.5 316.5,72.5 Z"/></g>
<g><path style="opacity:1" fill="#777777" d="M 182.5,89.5 C 183.209,88.596 184.209,88.2627 185.5,88.5C 191.5,88.5 197.5,88.5 203.5,88.5C 203.5,91.1667 203.5,93.8333 203.5,96.5C 202.167,96.5 200.833,96.5 199.5,96.5C 199.5,94.8333 199.5,93.1667 199.5,91.5C 200.161,92.7175 200.828,94.0508 201.5,95.5C 202.466,93.604 202.799,91.604 202.5,89.5C 195.833,89.5 189.167,89.5 182.5,89.5 Z"/></g>
<g><path style="opacity:1" fill="#777777" d="M 300.5,96.5 C 300.5,94.1667 300.5,91.8333 300.5,89.5C 292.5,89.5 284.5,89.5 276.5,89.5C 276.5,91.8333 276.5,94.1667 276.5,96.5C 275.527,94.0521 275.194,91.3854 275.5,88.5C 284.167,88.5 292.833,88.5 301.5,88.5C 301.806,91.3854 301.473,94.0521 300.5,96.5 Z"/></g>
<g><path style="opacity:1" fill="#787878" d="M 305.5,89.5 C 310.64,88.5119 315.974,88.1786 321.5,88.5C 323.167,88.5 324.833,88.5 326.5,88.5C 326.5,91.1667 326.5,93.8333 326.5,96.5C 325.167,96.5 323.833,96.5 322.5,96.5C 322.5,94.8333 322.5,93.1667 322.5,91.5C 323.161,92.7175 323.828,94.0508 324.5,95.5C 325.466,93.604 325.799,91.604 325.5,89.5C 318.833,89.5 312.167,89.5 305.5,89.5 Z"/></g>
<g><path style="opacity:1" fill="#31312f" d="M 349.5,114.5 C 349.047,115.458 348.381,116.292 347.5,117C 343.191,119.13 338.857,119.464 334.5,118C 333.897,115.929 332.564,114.762 330.5,114.5C 330.384,111.09 332.05,109.756 335.5,110.5C 335.579,111.93 335.246,113.264 334.5,114.5C 343.825,119.14 347.825,116.473 346.5,106.5C 343.314,106.105 340.314,105.105 337.5,103.5C 332.48,100.244 331.314,95.9103 334,90.5C 339.046,87.6513 343.879,87.9846 348.5,91.5C 349.823,93.204 349.49,94.5373 347.5,95.5C 346.148,94.4825 345.148,93.1492 344.5,91.5C 341.833,90.1667 339.167,90.1667 336.5,91.5C 334.918,95.0089 335.584,98.0089 338.5,100.5C 342.299,102.233 345.965,104.233 349.5,106.5C 350.824,109.198 350.824,111.864 349.5,114.5 Z"/></g>
<g><path style="opacity:1" fill="#262624" d="M 182.5,89.5 C 189.167,89.5 195.833,89.5 202.5,89.5C 202.799,91.604 202.466,93.604 201.5,95.5C 200.828,94.0508 200.161,92.7175 199.5,91.5C 196.167,91.5 192.833,91.5 189.5,91.5C 188.518,94.9619 188.185,98.6286 188.5,102.5C 191.833,102.5 195.167,102.5 198.5,102.5C 195.663,104.402 192.329,105.069 188.5,104.5C 188.5,108.167 188.5,111.833 188.5,115.5C 192.5,115.5 196.5,115.5 200.5,115.5C 200.157,113.517 200.824,112.183 202.5,111.5C 202.5,113.5 202.5,115.5 202.5,117.5C 195.833,117.5 189.167,117.5 182.5,117.5C 182.5,116.833 182.5,116.167 182.5,115.5C 183.5,115.5 184.5,115.5 185.5,115.5C 185.5,108.167 185.5,100.833 185.5,93.5C 184.5,92.1667 183.5,90.8333 182.5,89.5 Z"/></g>
<g><path style="opacity:1" fill="#323231" d="M 237.5,97.5 C 239.549,103.324 241.216,109.324 242.5,115.5C 243.833,115.5 245.167,115.5 246.5,115.5C 246.5,116.5 246.5,117.5 246.5,118.5C 243.167,118.5 239.833,118.5 236.5,118.5C 236.5,117.5 236.5,116.5 236.5,115.5C 237.5,115.5 238.5,115.5 239.5,115.5C 239.167,113.5 238.833,111.5 238.5,109.5C 236.603,108.195 234.269,107.529 231.5,107.5C 228.731,107.529 226.397,108.195 224.5,109.5C 223.659,111.379 223.325,113.379 223.5,115.5C 224.5,115.5 225.5,115.5 226.5,115.5C 226.5,116.5 226.5,117.5 226.5,118.5C 223.167,118.5 219.833,118.5 216.5,118.5C 216.5,117.5 216.5,116.5 216.5,115.5C 217.675,115.719 218.675,115.386 219.5,114.5C 222.572,106.948 225.239,99.2817 227.5,91.5C 226.5,91.5 225.5,91.5 224.5,91.5C 224.5,90.5 224.5,89.5 224.5,88.5C 229.167,88.5 233.833,88.5 238.5,88.5C 238.5,89.5 238.5,90.5 238.5,91.5C 237.5,91.5 236.5,91.5 235.5,91.5C 235.595,93.7857 236.262,95.7857 237.5,97.5 Z"/></g>
<g><path style="opacity:1" fill="#353534" d="M 253.5,114.5 C 253.5,111.167 253.5,107.833 253.5,104.5C 253.5,100.167 253.5,95.8333 253.5,91.5C 252.5,91.5 251.5,91.5 250.5,91.5C 250.5,90.5 250.5,89.5 250.5,88.5C 254.514,88.3345 258.514,88.5012 262.5,89C 269.173,89.9487 271.673,93.7821 270,100.5C 269.888,103.447 268.388,104.78 265.5,104.5C 266.313,107.673 267.647,110.673 269.5,113.5C 270.842,115.005 272.508,115.672 274.5,115.5C 274.5,116.5 274.5,117.5 274.5,118.5C 272.5,118.5 270.5,118.5 268.5,118.5C 267.657,114.478 265.99,110.812 263.5,107.5C 261.604,106.534 259.604,106.201 257.5,106.5C 257.5,109.5 257.5,112.5 257.5,115.5C 258.5,115.5 259.5,115.5 260.5,115.5C 260.5,116.5 260.5,117.5 260.5,118.5C 257.167,118.5 253.833,118.5 250.5,118.5C 250.5,117.5 250.5,116.5 250.5,115.5C 251.791,115.737 252.791,115.404 253.5,114.5 Z"/></g>
<g><path style="opacity:1" fill="#333331" d="M 300.5,96.5 C 299.5,96.5 298.5,96.5 297.5,96.5C 297.5,94.8333 297.5,93.1667 297.5,91.5C 295.167,91.5 292.833,91.5 290.5,91.5C 290.5,99.5 290.5,107.5 290.5,115.5C 291.5,115.5 292.5,115.5 293.5,115.5C 292.306,116.777 290.64,117.444 288.5,117.5C 286.36,117.444 284.694,116.777 283.5,115.5C 284.5,115.5 285.5,115.5 286.5,115.5C 286.5,107.5 286.5,99.5 286.5,91.5C 284.167,91.5 281.833,91.5 279.5,91.5C 279.5,93.1667 279.5,94.8333 279.5,96.5C 278.5,96.5 277.5,96.5 276.5,96.5C 276.5,94.1667 276.5,91.8333 276.5,89.5C 284.5,89.5 292.5,89.5 300.5,89.5C 300.5,91.8333 300.5,94.1667 300.5,96.5 Z"/></g>
<g><path style="opacity:1" fill="#262624" d="M 305.5,89.5 C 312.167,89.5 318.833,89.5 325.5,89.5C 325.799,91.604 325.466,93.604 324.5,95.5C 323.828,94.0508 323.161,92.7175 322.5,91.5C 319.167,91.5 315.833,91.5 312.5,91.5C 311.518,94.9619 311.185,98.6286 311.5,102.5C 314.833,102.5 318.167,102.5 321.5,102.5C 318.663,104.402 315.329,105.069 311.5,104.5C 311.5,108.167 311.5,111.833 311.5,115.5C 315.5,115.5 319.5,115.5 323.5,115.5C 323.157,113.517 323.824,112.183 325.5,111.5C 325.5,113.5 325.5,115.5 325.5,117.5C 318.833,117.5 312.167,117.5 305.5,117.5C 305.821,115.952 306.821,115.285 308.5,115.5C 308.5,107.5 308.5,99.5 308.5,91.5C 306.821,91.7148 305.821,91.0481 305.5,89.5 Z"/></g>
<g><path style="opacity:1" fill="#f3f3f3" d="M 48.5,-0.5 C 73.1667,-0.5 97.8333,-0.5 122.5,-0.5C 122.5,2.83333 122.5,6.16667 122.5,9.5C 125.833,9.5 129.167,9.5 132.5,9.5C 132.5,13.1667 132.5,16.8333 132.5,20.5C 136.167,20.5 139.833,20.5 143.5,20.5C 143.5,23.8333 143.5,27.1667 143.5,30.5C 149.5,30.5 155.5,30.5 161.5,30.5C 161.846,33.6021 161.179,36.4355 159.5,39C 153.029,40.8062 150.696,38.6396 152.5,32.5C 151.167,32.5 149.833,32.5 148.5,32.5C 148.145,36.8751 149.811,39.8751 153.5,41.5C 153.5,44.5 153.5,47.5 153.5,50.5C 151.901,50.2322 150.568,50.5655 149.5,51.5C 149.821,53.0481 150.821,53.7148 152.5,53.5C 152.5,61.5 152.5,69.5 152.5,77.5C 150.821,77.2852 149.821,77.9519 149.5,79.5C 154.305,80.4872 159.305,80.8205 164.5,80.5C 164.5,81.5 164.5,82.5 164.5,83.5C 167.833,83.5 171.167,83.5 174.5,83.5C 174.5,86.8333 174.5,90.1667 174.5,93.5C 178.167,93.5 181.833,93.5 185.5,93.5C 185.5,100.833 185.5,108.167 185.5,115.5C 184.5,115.5 183.5,115.5 182.5,115.5C 180.052,114.527 177.385,114.194 174.5,114.5C 174.5,118.167 174.5,121.833 174.5,125.5C 171.167,125.5 167.833,125.5 164.5,125.5C 165.01,122.612 164.344,120.279 162.5,118.5C 172.755,115.413 177.089,108.58 175.5,98C 173.634,94.6341 170.968,92.1341 167.5,90.5C 161.635,88.7663 155.635,88.0996 149.5,88.5C 149.5,89.5 149.5,90.5 149.5,91.5C 150.5,91.5 151.5,91.5 152.5,91.5C 152.5,99.5 152.5,107.5 152.5,115.5C 151.5,115.5 150.5,115.5 149.5,115.5C 149.5,116.5 149.5,117.5 149.5,118.5C 150.833,118.5 152.167,118.5 153.5,118.5C 153.5,120.833 153.5,123.167 153.5,125.5C 150.167,125.5 146.833,125.5 143.5,125.5C 143.5,121.833 143.5,118.167 143.5,114.5C 139.833,114.5 136.167,114.5 132.5,114.5C 132.5,118.167 132.5,121.833 132.5,125.5C 129.167,125.5 125.833,125.5 122.5,125.5C 122.5,121.833 122.5,118.167 122.5,114.5C 118.833,114.5 115.167,114.5 111.5,114.5C 111.5,118.167 111.5,121.833 111.5,125.5C 108.167,125.5 104.833,125.5 101.5,125.5C 101.5,122.833 101.5,120.167 101.5,117.5C 106.13,112.369 110.963,107.369 116,102.5C 134.269,75.613 138.269,46.613 128,15.5C 122.335,12.9194 116.502,10.7528 110.5,9C 89.7606,4.193 69.094,4.35966 48.5,9.5C 48.5,6.16667 48.5,2.83333 48.5,-0.5 Z"/></g>
<g><path style="opacity:1" fill="#393937" d="M 162.5,118.5 C 159.5,118.5 156.5,118.5 153.5,118.5C 152.167,118.5 150.833,118.5 149.5,118.5C 149.5,117.5 149.5,116.5 149.5,115.5C 150.5,115.5 151.5,115.5 152.5,115.5C 152.5,107.5 152.5,99.5 152.5,91.5C 151.5,91.5 150.5,91.5 149.5,91.5C 149.5,90.5 149.5,89.5 149.5,88.5C 155.635,88.0996 161.635,88.7663 167.5,90.5C 170.968,92.1341 173.634,94.6341 175.5,98C 177.089,108.58 172.755,115.413 162.5,118.5 Z"/></g>
<g><path style="opacity:1" fill="#767676" d="M 189.5,91.5 C 189.5,94.8333 189.5,98.1667 189.5,101.5C 192.713,101.19 195.713,101.523 198.5,102.5C 195.167,102.5 191.833,102.5 188.5,102.5C 188.185,98.6286 188.518,94.9619 189.5,91.5 Z"/></g>
<g><path style="opacity:1" fill="#e7e7e7" d="M 229.5,93.5 C 230.675,93.281 231.675,93.6143 232.5,94.5C 233.854,98.2353 235.188,101.902 236.5,105.5C 233.102,105.82 229.768,105.487 226.5,104.5C 228.117,100.986 229.117,97.3193 229.5,93.5 Z"/></g>
<g><path style="opacity:1" fill="#777777" d="M 257.5,91.5 C 257.5,95.5 257.5,99.5 257.5,103.5C 259.5,103.5 261.5,103.5 263.5,103.5C 261.393,104.468 259.059,104.802 256.5,104.5C 256.182,99.9677 256.515,95.6344 257.5,91.5 Z"/></g>
<g><path style="opacity:1" fill="#f8f8f8" d="M 257.5,91.5 C 264.827,90.3293 267.994,93.3293 267,100.5C 266.28,102.056 265.113,103.056 263.5,103.5C 261.5,103.5 259.5,103.5 257.5,103.5C 257.5,99.5 257.5,95.5 257.5,91.5 Z"/></g>
<g><path style="opacity:1" fill="#767676" d="M 312.5,91.5 C 312.5,94.8333 312.5,98.1667 312.5,101.5C 315.713,101.19 318.713,101.523 321.5,102.5C 318.167,102.5 314.833,102.5 311.5,102.5C 311.185,98.6286 311.518,94.9619 312.5,91.5 Z"/></g>
<g><path style="opacity:1" fill="#efefef" d="M 156.5,91.5 C 169.117,90.6756 174.284,96.3422 172,108.5C 168.639,114.669 163.472,117.002 156.5,115.5C 156.5,107.5 156.5,99.5 156.5,91.5 Z"/></g>
<g><path style="opacity:1" fill="#797979" d="M 238.5,109.5 C 233.833,108.167 229.167,108.167 224.5,109.5C 226.397,108.195 228.731,107.529 231.5,107.5C 234.269,107.529 236.603,108.195 238.5,109.5 Z"/></g>
<g><path style="opacity:1" fill="#787878" d="M 202.5,111.5 C 203.404,112.209 203.737,113.209 203.5,114.5C 203.5,115.833 203.5,117.167 203.5,118.5C 196.313,118.825 189.313,118.491 182.5,117.5C 189.167,117.5 195.833,117.5 202.5,117.5C 202.5,115.5 202.5,113.5 202.5,111.5 Z"/></g>
<g><path style="opacity:1" fill="#777777" d="M 325.5,111.5 C 326.404,112.209 326.737,113.209 326.5,114.5C 326.5,115.833 326.5,117.167 326.5,118.5C 319.5,118.5 312.5,118.5 305.5,118.5C 305.5,118.167 305.5,117.833 305.5,117.5C 312.167,117.5 318.833,117.5 325.5,117.5C 325.5,115.5 325.5,113.5 325.5,111.5 Z"/></g>
<g><path style="opacity:1" fill="#f9f9f9" d="M 248.5,93.5 C 248.5,97.1667 248.5,100.833 248.5,104.5C 250.167,104.5 251.833,104.5 253.5,104.5C 253.5,107.833 253.5,111.167 253.5,114.5C 251.833,114.5 250.167,114.5 248.5,114.5C 248.5,118.167 248.5,121.833 248.5,125.5C 258.833,125.5 269.167,125.5 279.5,125.5C 279.5,121.833 279.5,118.167 279.5,114.5C 280.791,114.263 281.791,114.596 282.5,115.5C 282.5,116.5 282.5,117.5 282.5,118.5C 285.167,118.5 287.833,118.5 290.5,118.5C 290.5,120.833 290.5,123.167 290.5,125.5C 293.833,125.5 297.167,125.5 300.5,125.5C 300.5,121.833 300.5,118.167 300.5,114.5C 301.833,114.5 303.167,114.5 304.5,114.5C 304.232,116.099 304.566,117.432 305.5,118.5C 312.5,118.5 319.5,118.5 326.5,118.5C 326.5,117.167 326.5,115.833 326.5,114.5C 327.833,114.5 329.167,114.5 330.5,114.5C 332.564,114.762 333.897,115.929 334.5,118C 338.857,119.464 343.191,119.13 347.5,117C 348.381,116.292 349.047,115.458 349.5,114.5C 350.833,114.5 352.167,114.5 353.5,114.5C 353.5,118.167 353.5,121.833 353.5,125.5C 356.833,125.5 360.167,125.5 363.5,125.5C 363.5,121.833 363.5,118.167 363.5,114.5C 367.167,114.5 370.833,114.5 374.5,114.5C 374.5,118.167 374.5,121.833 374.5,125.5C 377.833,125.5 381.167,125.5 384.5,125.5C 384.5,121.833 384.5,118.167 384.5,114.5C 388.167,114.5 391.833,114.5 395.5,114.5C 395.5,118.833 395.5,123.167 395.5,127.5C 292.167,127.5 188.833,127.5 85.5,127.5C 90.8252,124.17 96.1586,120.836 101.5,117.5C 101.5,120.167 101.5,122.833 101.5,125.5C 104.833,125.5 108.167,125.5 111.5,125.5C 111.5,121.833 111.5,118.167 111.5,114.5C 115.167,114.5 118.833,114.5 122.5,114.5C 122.5,118.167 122.5,121.833 122.5,125.5C 125.833,125.5 129.167,125.5 132.5,125.5C 132.5,121.833 132.5,118.167 132.5,114.5C 136.167,114.5 139.833,114.5 143.5,114.5C 143.5,118.167 143.5,121.833 143.5,125.5C 146.833,125.5 150.167,125.5 153.5,125.5C 153.5,123.167 153.5,120.833 153.5,118.5C 156.5,118.5 159.5,118.5 162.5,118.5C 164.344,120.279 165.01,122.612 164.5,125.5C 167.833,125.5 171.167,125.5 174.5,125.5C 174.5,121.833 174.5,118.167 174.5,114.5C 177.385,114.194 180.052,114.527 182.5,115.5C 182.5,116.167 182.5,116.833 182.5,117.5C 189.313,118.491 196.313,118.825 203.5,118.5C 203.5,117.167 203.5,115.833 203.5,114.5C 204.5,114.5 205.5,114.5 206.5,114.5C 206.5,118.167 206.5,121.833 206.5,125.5C 209.833,125.5 213.167,125.5 216.5,125.5C 216.5,123.167 216.5,120.833 216.5,118.5C 219.833,118.5 223.167,118.5 226.5,118.5C 226.5,117.5 226.5,116.5 226.5,115.5C 225.5,115.5 224.5,115.5 223.5,115.5C 223.325,113.379 223.659,111.379 224.5,109.5C 229.167,108.167 233.833,108.167 238.5,109.5C 238.833,111.5 239.167,113.5 239.5,115.5C 238.5,115.5 237.5,115.5 236.5,115.5C 236.5,116.5 236.5,117.5 236.5,118.5C 239.833,118.5 243.167,118.5 246.5,118.5C 246.5,117.5 246.5,116.5 246.5,115.5C 245.167,115.5 243.833,115.5 242.5,115.5C 241.216,109.324 239.549,103.324 237.5,97.5C 237.5,96.1667 237.5,94.8333 237.5,93.5C 241.167,93.5 244.833,93.5 248.5,93.5 Z"/></g>
<g><path style="opacity:1" fill="#787878" d="M 282.5,115.5 C 282.833,115.5 283.167,115.5 283.5,115.5C 284.694,116.777 286.36,117.444 288.5,117.5C 290.64,117.444 292.306,116.777 293.5,115.5C 294.404,116.209 294.737,117.209 294.5,118.5C 293.167,118.5 291.833,118.5 290.5,118.5C 287.833,118.5 285.167,118.5 282.5,118.5C 282.5,117.5 282.5,116.5 282.5,115.5 Z"/></g>
</svg>
